 http://www.imdb.com/title/tt1486799/

Aka Reborn.

User Rating:3.5/10 - 30 votes

Horror

Director:Craig McMahon

Cast:Kathleen Benner/Russell Clay/Chris Cox/Jimmy Flowers, and others.

Plot:
When a property in the Sonoran Desert, AZ fell into default foreclosure and went up for public auction, an eager young newlywed couple jumped at the opportunity to purchase. Little did they know it used to be a torture ground owned by the serial killer "Motorman Danö whose crimes became the most puzzling in U.S.history. Now, their honeymoon phase has come to a horrifying halt, as the Motorman rises for one more round of terror.... 

Info:

General
Complete name                    : Machined Reborn-AC3-5,1-DVDRip[Eng]2009.avi
Format                           : AVI
Format/Info                      : Audio Video Interleave
File size                        : 1.36 GiB
Duration                         : 1h 27mn
Overall bit rate                 : 2 221 Kbps
Writing application              : VirtualDubMod 1.5.4.1 (build 2178/release)
Writing library                  : VirtualDubMod build 2178/release

Video
ID                               : 0
Format                           : MPEG-4 Visual
Format profile                   : Simple@L3
Format settings, BVOP            : No
Format settings, QPel            : No
Format settings, GMC             : No warppoints
Format settings, Matrix          : Default (H.263)
Codec ID                         : XVID
Codec ID/Hint                    : XviD
Duration                         : 1h 27mn
Bit rate                         : 1 764 Kbps
Width                            : 640 pixels
Height                           : 352 pixels
Display aspect ratio             : 16:9
Frame rate                       : 23.976 fps
Resolution                       : 24 bits
Colorimetry                      : 4:2:0
Scan type                        : Progressive
Bits/(Pixel*Frame)               : 0.327
Stream size                      : 1.08 GiB (79%)
Writing library                  : XviD 1.1.2 (UTC 2006-11-01)

Audio
ID                               : 1
Format                           : AC-3
Format/Info                      : Audio Coding 3
Codec ID                         : 2000
Duration                         : 1h 27mn
Bit rate mode                    : Constant
Bit rate                         : 448 Kbps
Channel(s)                       : 6 channels
Channel positions                : Front: L C R, Surround: L R, LFE
Sampling rate                    : 48.0 KHz
Stream size                      : 281 MiB (20%)
Alignment                        : Split accross interleaves
Interleave, duration             : 42 ms (1.00 video frame)
Interleave, preload duration     : 500 ms

Enjoy...